<?xml version="1.0" encoding="UTF-8"?>
<svg width="560" height="520" viewBox="0 0 560 520" fill="none" xmlns="http://www.w3.org/2000/svg">
  <defs>
    <linearGradient id="g1" x1="0" y1="0" x2="1" y2="1">
      <stop offset="0" stop-color="#F36A0C" stop-opacity="0.15"/>
      <stop offset="1" stop-color="#6B2A1B" stop-opacity="0.15"/>
    </linearGradient>
  </defs>
  <rect x="0" y="0" width="560" height="520" rx="28" fill="url(#g1)"/>
  <circle cx="120" cy="380" r="14" fill="#F36A0C"/>
  <circle cx="430" cy="410" r="10" fill="#6B2A1B"/>
  <g>
    <ellipse cx="280" cy="430" rx="200" ry="24" fill="#000" opacity="0.08"/>
    <g transform="translate(100,120)">
      <rect x="70" y="0" width="220" height="140" rx="16" fill="#fff" opacity="0.9"/>
      <rect x="86" y="20" width="96" height="12" rx="6" fill="#F36A0C" opacity="0.9"/>
      <rect x="86" y="44" width="160" height="10" rx="5" fill="#E2E8F0"/>
      <rect x="86" y="64" width="128" height="10" rx="5" fill="#E2E8F0"/>
      <rect x="86" y="84" width="144" height="10" rx="5" fill="#E2E8F0"/>
      <rect x="86" y="104" width="96" height="10" rx="5" fill="#E2E8F0"/>
      <rect x="210" y="18" width="60" height="24" rx="12" fill="#6B2A1B" opacity="0.9"/>
    </g>
    <g transform="translate(160,230)">
      <path d="M40 50 C80 20, 160 20, 200 50" stroke="#6B2A1B" stroke-width="6" fill="none" stroke-linecap="round"/>
      <circle cx="52" cy="80" r="24" fill="#fff" stroke="#6B2A1B" stroke-width="6"/>
      <circle cx="188" cy="80" r="24" fill="#fff" stroke="#6B2A1B" stroke-width="6"/>
      <rect x="74" y="42" width="88" height="28" rx="14" fill="#F36A0C"/>
      <rect x="98" y="14" width="40" height="40" rx="8" fill="#6B2A1B"/>
      <path d="M102 10 h64 a8 8 0 0 1 8 8 v14 h-72 z" fill="#F36A0C"/>
    </g>
  </g>
</svg>

